<?xml version="1.0" encoding="utf-8"?>
<!-- Generator: Adobe Illustrator 28.0.0, SVG Export Plug-In . SVG Version: 6.00 Build 0)  -->
<svg version="1.1" id="Layer_1" xmlns="http://www.w3.org/2000/svg" xmlns:xlink="http://www.w3.org/1999/xlink" x="0px" y="0px"
	 viewBox="0 0 100 100" style="enable-background:new 0 0 100 100;" xml:space="preserve">
<style type="text/css">
	.st0{fill:#190B50;}
	.st1{fill:#FFFFFF;}
	.st2{fill:url(#SVGID_1_);}
</style>
<circle class="st0" cx="50" cy="50" r="49"/>
<path class="st1" d="M50,1.5c6.5,0,12.9,1.3,18.9,3.8c5.8,2.4,11,5.9,15.4,10.4c4.5,4.5,8,9.6,10.4,15.4c2.5,6,3.8,12.3,3.8,18.9
	c0,6.5-1.3,12.9-3.8,18.9c-2.4,5.8-5.9,11-10.4,15.4c-4.5,4.5-9.6,8-15.4,10.4c-6,2.5-12.3,3.8-18.9,3.8c-6.5,0-12.9-1.3-18.9-3.8
	c-5.8-2.4-11-5.9-15.4-10.4c-4.5-4.5-8-9.6-10.4-15.4c-2.5-6-3.8-12.3-3.8-18.9c0-6.5,1.3-12.9,3.8-18.9c2.4-5.8,5.9-11,10.4-15.4
	s9.6-8,15.4-10.4C37.1,2.7,43.5,1.5,50,1.5 M50,0C22.4,0,0,22.4,0,50s22.4,50,50,50s50-22.4,50-50S77.6,0,50,0L50,0z"/>
<linearGradient id="SVGID_1_" gradientUnits="userSpaceOnUse" x1="50" y1="91.4" x2="50" y2="8.5">
	<stop  offset="0" style="stop-color:#FF5AB5"/>
	<stop  offset="1" style="stop-color:#FCEE21"/>
</linearGradient>
<path class="st2" d="M50,8.5C27.1,8.5,8.6,27.1,8.6,50S27.1,91.4,50,91.4S91.4,72.9,91.4,50S72.9,8.5,50,8.5z M32.9,64.7V32.2h23.5
	c7,0,9.8,3.7,9.8,8.6c0,3.4-1.4,5.9-3.7,6.8c2.5,0.8,4.5,3.5,4.5,7.6c0,5.9-3.8,9.6-10.8,9.6H32.9V64.7z M44.6,51.7V45h10.8
	c1.5,0,2.4-0.9,2.4-2.4s-0.9-2.3-2.4-2.3H41.7v16.3h14.1c1.7,0,2.6-0.9,2.6-2.4c0-1.6-0.9-2.5-2.5-2.5
	C55.9,51.7,44.6,51.7,44.6,51.7z"/>
</svg>
