<?xml version="1.0" encoding="utf-8"?>
<!-- Generator: Adobe Illustrator 28.0.0, SVG Export Plug-In . SVG Version: 6.00 Build 0)  -->
<svg version="1.1" id="Layer_1" xmlns="http://www.w3.org/2000/svg" xmlns:xlink="http://www.w3.org/1999/xlink" x="0px" y="0px"
	 viewBox="0 0 100 100" style="enable-background:new 0 0 100 100;" xml:space="preserve">
<style type="text/css">
	.st0{fill:#190B50;}
	.st1{fill:#FFFFFF;}
	.st2{fill:url(#SVGID_1_);}
</style>
<circle class="st0" cx="50" cy="50" r="49"/>
<path class="st1" d="M50,1.5c6.5,0,12.9,1.3,18.9,3.8c5.8,2.4,11,5.9,15.4,10.4c4.5,4.5,8,9.6,10.4,15.4c2.5,6,3.8,12.3,3.8,18.9
	c0,6.5-1.3,12.9-3.8,18.9c-2.4,5.8-5.9,11-10.4,15.4c-4.5,4.5-9.6,8-15.4,10.4c-6,2.5-12.3,3.8-18.9,3.8c-6.5,0-12.9-1.3-18.9-3.8
	c-5.8-2.4-11-5.9-15.4-10.4c-4.5-4.5-8-9.6-10.4-15.4c-2.5-6-3.8-12.3-3.8-18.9c0-6.5,1.3-12.9,3.8-18.9c2.4-5.8,5.9-11,10.4-15.4
	s9.6-8,15.4-10.4C37.1,2.7,43.5,1.5,50,1.5 M50,0C22.4,0,0,22.4,0,50s22.4,50,50,50s50-22.4,50-50S77.6,0,50,0L50,0z"/>
<linearGradient id="SVGID_1_" gradientUnits="userSpaceOnUse" x1="50" y1="91.4" x2="50" y2="8.6">
	<stop  offset="0" style="stop-color:#FF5AB5"/>
	<stop  offset="1" style="stop-color:#FCEE21"/>
</linearGradient>
<path class="st2" d="M50,8.6C27.1,8.6,8.6,27.1,8.6,50S27.1,91.4,50,91.4S91.4,72.9,91.4,50S72.9,8.6,50,8.6z M64.3,38L41.9,50
	l22.4,11.9v9.7L34.1,54.9c-1.6-0.9-2.4-2.2-2.4-3.9v-2c0-1.7,0.8-3,2.4-3.9l30.1-16.6V38H64.3z"/>
</svg>
